<?xml version="1.0" encoding="utf-8"?>
<!-- Generator: Adobe Illustrator 24.1.2, SVG Export Plug-In . SVG Version: 6.00 Build 0)  -->
<svg version="1.1"
	 id="svg2" xmlns:cc="http://creativecommons.org/ns#" xmlns:dc="http://purl.org/dc/elements/1.1/" xmlns:rdf="http://www.w3.org/1999/02/22-rdf-syntax-ns#" xmlns:svg="http://www.w3.org/2000/svg"
	 xmlns="http://www.w3.org/2000/svg" xmlns:xlink="http://www.w3.org/1999/xlink" x="0px" y="0px" viewBox="0 0 45 45"
	 style="enable-background:new 0 0 45 45;" xml:space="preserve">
<style type="text/css">
	.st0{clip-path:url(#SVGID_2_);}
	.st1{fill:#FFC961;}
	.st2{fill:#FFB361;}
	.st3{fill:#FFEDC9;}
	.st4{fill:#FFCC4D;}
	.st5{fill:#F5F8FA;}
	.st6{fill:#292F33;}
</style>
<g id="g10" transform="matrix(1.25,0,0,-1.25,0,45)">
	<g id="g12">
		<g>
			<defs>
				<rect id="SVGID_1_" x="-4.5" y="-4.5" width="45" height="45"/>
			</defs>
			<clipPath id="SVGID_2_">
				<use xlink:href="#SVGID_1_"  style="overflow:visible;"/>
			</clipPath>
			<g id="g14" class="st0">
				<g id="g20" transform="translate(12.75,18.25)">
					<path id="path22" class="st1" d="M0,0c1.2-2.2,1.9,1.4,9.3,2.6C16.8,3.9,23-1.8,23.2-2.8c0.1-1-4.4-9.5-9.5-9.5H-2
						c-4.1,0-7,7.2-4,11.4C-6-0.8-1.5,2.7,0,0"/>
				</g>
				<g id="g24" transform="translate(13.0083,17.8643)">
					<path id="path26" class="st2" d="M0,0c-5-6.9-6-11.9-2.3-11.9c-4.1,0-6.6,6.2-4.5,11C-6.3,0.2-5,1.7-5,1.7l4.2,0
						C-0.6,1.3-0.2,0.3,0,0"/>
				</g>
				<g id="g28" transform="translate(20.0625,13.25)">
					<path id="path30" class="st3" d="M0,0c6.7,2.7,15.7,3.2,15.9,2.2c0.1-1-4.4-9.5-9.5-9.5H-8.3C-12.4-7.3-7-2.8,0,0"/>
				</g>
				<g id="g32" transform="translate(25.3594,14.875)">
					<path id="path34" class="st2" d="M0,0c6,1.3,10.5,1.3,10.6,0.6C10.6,0,9-3.3,6.6-5.9C8.8-3.1,8,0.2,0,0"/>
				</g>
				<g id="g36" transform="translate(7.125,29.875)">
					<path id="path38" class="st2" d="M0,0c1.6,4.9,10.4,4.1,10.1-0.7C9.7-5.5,3.6-8.5,5.9-12c-1.6-1.4-5-0.9-6.7-0.8
						c0.7,1.4,1.4,2.6,1.8,3.4C3.9-4.2-1.2-3.7,0,0"/>
				</g>
				<g id="g40" transform="translate(1.8926,26.9551)">
					<path id="path42" class="st4" d="M0,0c0.6,1.1,0.5-0.1,3.4-0.1c1.6,0,1.5,0.6,1.7,1.6c0,0.2,0.8-1.6,2.1-1.8
						c3.6-0.5,1.9-1.9,0-2.3c-0.9-0.2-2-0.3-3.9-0.2C0.6-2.5-0.6-1.2,0,0"/>
				</g>
				<g id="g44" transform="translate(12.5024,19.375)">
					<path id="path46" class="st5" d="M0,0c0-0.6,0.5-1.5,0.5-1.5c-1-1.5-5.6-3-7.4-2.9c0.1,0.6,0.3,1.4,0.6,2.1
						C-4.4-1.9-1.6-1.3,0,0"/>
				</g>
				<g id="g48" transform="translate(11.708,29.8486)">
					<path id="path50" class="st6" d="M0,0c0-0.7-0.6-1.3-1.3-1.3S-2.6-0.7-2.6,0S-2,1.3-1.3,1.3S0,0.7,0,0"/>
				</g>
			</g>
		</g>
	</g>
</g>
</svg>
